<svg xmlns="http://www.w3.org/2000/svg">
    <symbol viewBox="0 0 24 24" fill="none" id="chats">
        <path
            d="M12 22C17.5228 22 22 17.5228 22 12C22 11.094 21.8795 10.2162 21.6537 9.38161C21.5684 9.06633 21.1987 8.94083 20.9028 9.0791C20.3248 9.34916 19.68 9.5 19 9.5C16.5147 9.5 14.5 7.48528 14.5 5C14.5 4.31996 14.6508 3.67516 14.9209 3.09722C15.0592 2.80131 14.9337 2.4316 14.6184 2.3463C13.7838 2.12048 12.906 2 12 2C6.47715 2 2 6.47715 2 12C2 13.5997 2.37562 15.1116 3.04346 16.4525C3.22094 16.8088 3.28001 17.2161 3.17712 17.6006L2.58151 19.8267C2.32295 20.793 3.20701 21.677 4.17335 21.4185L6.39939 20.8229C6.78393 20.72 7.19121 20.7791 7.54753 20.9565C8.88837 21.6244 10.4003 22 12 22Z"
            fill="currentColor" />
        <circle cx="19" cy="5" r="3" fill="currentColor" />
    </symbol>
    <symbol viewBox="0 0 24 24" fill="none" id="keymanager">
        <path fill-rule="evenodd" clip-rule="evenodd"
            d="M19.7523 15.1004C22.7492 12.1035 22.7492 7.24459 19.7523 4.24768C16.7554 1.25077 11.8965 1.25077 8.89956 4.24768C6.90963 6.23762 6.241 9.04851 6.89369 11.5901C6.99895 12.0001 6.90546 12.4434 6.6062 12.7426L2.48166 16.8672C2.12842 17.2204 1.9549 17.7151 2.01007 18.2116L2.26792 20.5322C2.29541 20.7796 2.40629 21.0103 2.58231 21.1863L2.81366 21.4177C2.98969 21.5937 3.22038 21.7046 3.46779 21.7321L5.78844 21.9899C6.28494 22.0451 6.7796 21.8716 7.13284 21.5183L7.92176 20.7294L5.98159 18.8105C5.65437 18.4868 5.65147 17.9592 5.97511 17.632C6.29875 17.3048 6.82638 17.3019 7.15361 17.6255L9.10029 19.5509L11.2577 17.3935C11.557 17.0942 12 17.001 12.4099 17.1063C14.9515 17.759 17.7624 17.0904 19.7523 15.1004ZM12.6509 8.20643C13.5187 7.3386 14.9257 7.3386 15.7936 8.20643C16.6614 9.07426 16.6614 10.4813 15.7936 11.3491C14.9257 12.217 13.5187 12.217 12.6509 11.3491C11.783 10.4813 11.783 9.07426 12.6509 8.20643Z"
            fill="currentColor" />
    </symbol>
    <symbol viewBox="0 0 24 24" fill="none" id="subscription">
        <path
            d="M21.609 13.5616L21.8382 11.1263C22.0182 9.2137 22.1082 8.25739 21.781 7.86207C21.604 7.64823 21.3633 7.5172 21.106 7.4946C20.6303 7.45282 20.0329 8.1329 18.8381 9.49307C18.2202 10.1965 17.9113 10.5482 17.5666 10.6027C17.3757 10.6328 17.1811 10.6018 17.0047 10.5131C16.6865 10.3529 16.4743 9.91812 16.0499 9.04851L13.8131 4.46485C13.0112 2.82162 12.6102 2 12 2C11.3898 2 10.9888 2.82162 10.1869 4.46486L7.95007 9.04852C7.5257 9.91812 7.31351 10.3529 6.99526 10.5131C6.81892 10.6018 6.62434 10.6328 6.43337 10.6027C6.08872 10.5482 5.77977 10.1965 5.16187 9.49307C3.96708 8.1329 3.36968 7.45282 2.89399 7.4946C2.63666 7.5172 2.39598 7.64823 2.21899 7.86207C1.8918 8.25739 1.9818 9.2137 2.16181 11.1263L2.391 13.5616C2.76865 17.5742 2.95748 19.5805 4.14009 20.7902C5.32271 22 7.09517 22 10.6401 22H13.3599C16.9048 22 18.6773 22 19.8599 20.7902C21.0425 19.5805 21.2313 17.5742 21.609 13.5616Z"
            fill="currentColor" />
    </symbol>
    <symbol viewBox="0 0 24 24" fill="none" id="settings">
        <path fill-rule="evenodd" clip-rule="evenodd"
            d="M14.2788 2.15224C13.9085 2 13.439 2 12.5 2C11.561 2 11.0915 2 10.7212 2.15224C10.2274 2.35523 9.83509 2.74458 9.63056 3.23463C9.53719 3.45834 9.50065 3.7185 9.48635 4.09799C9.46534 4.65568 9.17716 5.17189 8.69017 5.45093C8.20318 5.72996 7.60864 5.71954 7.11149 5.45876C6.77318 5.2813 6.52789 5.18262 6.28599 5.15102C5.75609 5.08178 5.22018 5.22429 4.79616 5.5472C4.47814 5.78938 4.24339 6.1929 3.7739 6.99993C3.30441 7.80697 3.06967 8.21048 3.01735 8.60491C2.94758 9.1308 3.09118 9.66266 3.41655 10.0835C3.56506 10.2756 3.77377 10.437 4.0977 10.639C4.57391 10.936 4.88032 11.4419 4.88029 12C4.88026 12.5581 4.57386 13.0639 4.0977 13.3608C3.77372 13.5629 3.56497 13.7244 3.41645 13.9165C3.09108 14.3373 2.94749 14.8691 3.01725 15.395C3.06957 15.7894 3.30432 16.193 3.7738 17C4.24329 17.807 4.47804 18.2106 4.79606 18.4527C5.22008 18.7756 5.75599 18.9181 6.28589 18.8489C6.52778 18.8173 6.77305 18.7186 7.11133 18.5412C7.60852 18.2804 8.2031 18.27 8.69012 18.549C9.17714 18.8281 9.46533 19.3443 9.48635 19.9021C9.50065 20.2815 9.53719 20.5417 9.63056 20.7654C9.83509 21.2554 10.2274 21.6448 10.7212 21.8478C11.0915 22 11.561 22 12.5 22C13.439 22 13.9085 22 14.2788 21.8478C14.7726 21.6448 15.1649 21.2554 15.3694 20.7654C15.4628 20.5417 15.4994 20.2815 15.5137 19.902C15.5347 19.3443 15.8228 18.8281 16.3098 18.549C16.7968 18.2699 17.3914 18.2804 17.8886 18.5412C18.2269 18.7186 18.4721 18.8172 18.714 18.8488C19.2439 18.9181 19.7798 18.7756 20.2038 18.4527C20.5219 18.2105 20.7566 17.807 21.2261 16.9999C21.6956 16.1929 21.9303 15.7894 21.9827 15.395C22.0524 14.8691 21.9088 14.3372 21.5835 13.9164C21.4349 13.7243 21.2262 13.5628 20.9022 13.3608C20.4261 13.0639 20.1197 12.558 20.1197 11.9999C20.1197 11.4418 20.4261 10.9361 20.9022 10.6392C21.2263 10.4371 21.435 10.2757 21.5836 10.0835C21.9089 9.66273 22.0525 9.13087 21.9828 8.60497C21.9304 8.21055 21.6957 7.80703 21.2262 7C20.7567 6.19297 20.522 5.78945 20.2039 5.54727C19.7799 5.22436 19.244 5.08185 18.7141 5.15109C18.4722 5.18269 18.2269 5.28136 17.8887 5.4588C17.3915 5.71959 16.7969 5.73002 16.3099 5.45096C15.8229 5.17191 15.5347 4.65566 15.5136 4.09794C15.4993 3.71848 15.4628 3.45833 15.3694 3.23463C15.1649 2.74458 14.7726 2.35523 14.2788 2.15224ZM12.5 15C14.1695 15 15.5228 13.6569 15.5228 12C15.5228 10.3431 14.1695 9 12.5 9C10.8305 9 9.47716 10.3431 9.47716 12C9.47716 13.6569 10.8305 15 12.5 15Z"
            fill="currentColor" />
    </symbol>
    <symbol id="plus" viewBox="0 0 24 24" fill="none">
        <path fill-rule="evenodd" clip-rule="evenodd"
            d="M12 22C17.5228 22 22 17.5228 22 12C22 6.47715 17.5228 2 12 2C6.47715 2 2 6.47715 2 12C2 17.5228 6.47715 22 12 22ZM12.75 9C12.75 8.58579 12.4142 8.25 12 8.25C11.5858 8.25 11.25 8.58579 11.25 9L11.25 11.25H9C8.58579 11.25 8.25 11.5858 8.25 12C8.25 12.4142 8.58579 12.75 9 12.75H11.25V15C11.25 15.4142 11.5858 15.75 12 15.75C12.4142 15.75 12.75 15.4142 12.75 15L12.75 12.75H15C15.4142 12.75 15.75 12.4142 15.75 12C15.75 11.5858 15.4142 11.25 15 11.25H12.75V9Z"
            fill="currentColor" />
    </symbol>
    <symbol id="unread-message" viewBox="0 0 20 20" fill="none">
        <path d="M5.8335 10.75L8.45254 13.75L15.0002 6.25" stroke="currentColor" stroke-opacity="0.4"
            stroke-width="1.25" stroke-linecap="round" stroke-linejoin="round" />
    </symbol>
    <symbol id="read-message" viewBox="0 0 21 20" fill="none">
        <path d="M3.94678 10.75L6.56583 13.75L13.1134 6.25" stroke="currentColor" stroke-opacity="0.7"
            stroke-width="1.25" stroke-linecap="round" stroke-linejoin="round" />
        <path d="M17.2803 6.30273L10.1372 13.8027L9.78027 13.334" stroke="currentColor" stroke-opacity="0.7"
            stroke-width="1.25" stroke-linecap="round" stroke-linejoin="round" />
    </symbol>
    <symbol id="cross" viewBox="0 0 20 20" fill="none">
        <path d="M15 5L5 15M5 5L15 15" stroke="currentColor" stroke-width="2" stroke-linecap="round"
            stroke-linejoin="round" />
    </symbol>
    <symbol id="message-tail" viewBox="0 0 22 18" fill="none">
        <path
            d="M22 17.5922C11.093 19.5675 2.78873 13.8886 0 10.8022L0.309859 1.54318C3.30516 2.16045 9.79155 2.71599 11.7746 0C11.4648 11.1109 19.831 16.6663 22 17.5922Z"
            fill="currentColor" />
    </symbol>
    <symbol id="attachment" viewBox="0 0 24 24" fill="none">
        <path
            d="M7.9175 17.8068L15.8084 10.2535C16.7558 9.34668 16.7558 7.87637 15.8084 6.96951C14.861 6.06265 13.325 6.06265 12.3776 6.96951L4.54387 14.4681C2.74382 16.1911 2.74382 18.9847 4.54387 20.7077C6.34391 22.4308 9.26237 22.4308 11.0624 20.7077L19.0105 13.0997C21.6632 10.5605 21.6632 6.44362 19.0105 3.90441C16.3578 1.3652 12.0569 1.3652 9.40419 3.90441L3 10.0346"
            stroke="currentColor" stroke-width="1.25" stroke-linecap="round" />
    </symbol>
    <symbol id="emoji" viewBox="0 0 24 24" fill="none">
        <circle cx="12" cy="12" r="10" stroke="currentColor" stroke-width="1.25" />
        <path d="M9 16C9.85038 16.6303 10.8846 17 12 17C13.1154 17 14.1496 16.6303 15 16" stroke="currentColor"
            stroke-width="1.25" stroke-linecap="round" />
        <path
            d="M16 10.5C16 11.3284 15.5523 12 15 12C14.4477 12 14 11.3284 14 10.5C14 9.67157 14.4477 9 15 9C15.5523 9 16 9.67157 16 10.5Z"
            fill="currentColor" />
        <ellipse cx="9" cy="10.5" rx="1" ry="1.5" fill="currentColor" />
    </symbol>
    <symbol id="send" viewBox="0 0 24 25" fill="none">
        <path
            d="M10.4364 19.6483L15.2913 17.2209C19.5324 15.1003 21.653 14.04 21.653 12.361C21.653 10.6819 19.5324 9.62166 15.2913 7.5011L10.4364 5.07368C7.01345 3.36219 5.30196 2.50644 4.30974 2.76912C3.36583 3.01901 2.62863 3.75621 2.37874 4.70012C2.11606 5.69234 2.97181 7.40383 4.6833 10.8268C4.89541 11.251 5.32907 11.5332 5.80335 11.5355L13.5534 11.5715C13.9894 11.5736 14.3412 11.9287 14.3392 12.3647C14.3372 12.8007 13.9821 13.1525 13.5461 13.1505L5.92115 13.115C5.39839 13.1125 4.91708 13.4276 4.6833 13.8952C2.97181 17.3181 2.11606 19.0296 2.37874 20.0219C2.62862 20.9658 3.36583 21.703 4.30974 21.9529C5.30196 22.2155 7.01346 21.3598 10.4364 19.6483Z"
            fill="currentColor" />
    </symbol>
    <symbol id="info" viewBox="0 0 20 20" fill="none">
        <g clip-path="url(#clip0_1843_2241)">
            <circle cx="9.99996" cy="10.0001" r="8.33333" stroke="currentColor" stroke-width="1.5" />
            <path d="M10 14.1667V9.16675" stroke="currentColor" stroke-width="1.5" stroke-linecap="round" />
            <mask id="path-3-inside-1_1843_2241" fill="currentColor">
                <ellipse cx="0.833333" cy="0.833333" rx="0.833333" ry="0.833333"
                    transform="matrix(1 0 0 -1 9.16663 7.5)" />
            </mask>
            <ellipse cx="0.833333" cy="0.833333" rx="0.833333" ry="0.833333" transform="matrix(1 0 0 -1 9.16663 7.5)"
                fill="currentColor" />
            <path
                d="M9.33329 6.66667C9.33329 7.03486 9.63177 7.33333 9.99996 7.33333V4.33333C11.2886 4.33333 12.3333 5.378 12.3333 6.66667H9.33329ZM9.99996 7.33333C10.3681 7.33333 10.6666 7.03486 10.6666 6.66667H7.66663C7.66663 5.378 8.71129 4.33333 9.99996 4.33333V7.33333ZM10.6666 6.66667C10.6666 6.29848 10.3681 6 9.99996 6V9C8.71129 9 7.66663 7.95533 7.66663 6.66667H10.6666ZM9.99996 6C9.63177 6 9.33329 6.29848 9.33329 6.66667H12.3333C12.3333 7.95533 11.2886 9 9.99996 9V6Z"
                fill="currentColor" mask="url(#path-3-inside-1_1843_2241)" />
        </g>
        <defs>
            <clipPath id="clip0_1843_2241">
                <rect width="20" height="20" fill="currentColor" />
            </clipPath>
        </defs>
    </symbol>
    <symbol id="arrow-up-right" viewBox="0 0 16 16" fill="none">
        <path d="M4 12L12 4M12 4H6M12 4V10" stroke="currentColor" stroke-width="1.25" stroke-linecap="round"
            stroke-linejoin="round" />
    </symbol>
    <symbol id="arrow-down-left" viewBox="0 0 16 16">
        <path d="M12 4L4 12M4 12L10 12M4 12L4 6" stroke="currentColor" stroke-width="1.25" stroke-linecap="round"
            stroke-linejoin="round" />
    </symbol>

    <symbol id="eye-off" viewBox="0 0 20 20" fill="none">
        <path
            d="M2.24097 5.58778C2.105 5.27052 1.73757 5.12355 1.4203 5.25952C1.10304 5.39549 0.956066 5.76292 1.09204 6.08018L2.24097 5.58778ZM12.9892 11.1079L12.7603 10.5263H12.7602L12.9892 11.1079ZM7.53438 11.4488C7.72263 11.1594 7.6407 10.7723 7.35138 10.584C7.06206 10.3958 6.6749 10.4777 6.48665 10.767L7.53438 11.4488ZM5.30931 12.5765C5.12105 12.8658 5.20298 13.2529 5.4923 13.4412C5.78163 13.6294 6.16878 13.5475 6.35704 13.2582L5.30931 12.5765ZM18.9076 6.08018C19.0436 5.76292 18.8966 5.39549 18.5794 5.25952C18.2621 5.12355 17.8947 5.27052 17.7587 5.58778L18.9076 6.08018ZM15.8332 9.27468L15.4054 8.81898V8.81898L15.8332 9.27468ZM16.6412 10.9666C16.8853 11.2107 17.281 11.2107 17.5251 10.9666C17.7692 10.7225 17.7692 10.3268 17.5251 10.0827L16.6412 10.9666ZM9.37484 13.7507C9.37484 14.0958 9.65466 14.3757 9.99984 14.3757C10.345 14.3757 10.6248 14.0958 10.6248 13.7507H9.37484ZM13.6426 13.2582C13.8309 13.5475 14.218 13.6294 14.5074 13.4412C14.7967 13.2529 14.8786 12.8658 14.6904 12.5765L13.6426 13.2582ZM4.60845 9.71662C4.85252 9.47255 4.85252 9.07682 4.60845 8.83274C4.36437 8.58866 3.96864 8.58866 3.72456 8.83274L4.60845 9.71662ZM2.47456 10.0827C2.23048 10.3268 2.23048 10.7225 2.47456 10.9666C2.71864 11.2107 3.11437 11.2107 3.35845 10.9666L2.47456 10.0827ZM9.99984 11.0423C7.31326 11.0423 5.38428 9.70449 4.10367 8.32537C3.46355 7.63601 2.99421 6.94468 2.68533 6.42577C2.53125 6.1669 2.41806 5.95258 2.34434 5.80513C2.3075 5.73145 2.28058 5.67461 2.2634 5.63741C2.25481 5.61882 2.24866 5.60515 2.24493 5.59676C2.24307 5.59256 2.2418 5.58969 2.24114 5.58818C2.24082 5.58742 2.24064 5.58701 2.24061 5.58694C2.24059 5.58691 2.24062 5.58696 2.24068 5.5871C2.24071 5.58717 2.24078 5.58734 2.24079 5.58738C2.24088 5.58757 2.24097 5.58778 1.6665 5.83398C1.09204 6.08018 1.09215 6.08044 1.09227 6.08073C1.09232 6.08085 1.09245 6.08115 1.09256 6.0814C1.09277 6.0819 1.09303 6.08248 1.09332 6.08315C1.0939 6.0845 1.09464 6.0862 1.09553 6.08825C1.09732 6.09234 1.09973 6.09784 1.10278 6.10468C1.10886 6.11836 1.11746 6.13745 1.12861 6.16158C1.1509 6.20983 1.18339 6.27832 1.2263 6.36414C1.31208 6.5357 1.43978 6.77711 1.61122 7.06512C1.95338 7.63995 2.47363 8.40696 3.18767 9.17593C4.6154 10.7135 6.85308 12.2923 9.99984 12.2923V11.0423ZM12.7602 10.5263C11.9516 10.8446 11.0346 11.0423 9.99984 11.0423V12.2923C11.1983 12.2923 12.2703 12.0625 13.2181 11.6895L12.7602 10.5263ZM6.48665 10.767L5.30931 12.5765L6.35704 13.2582L7.53438 11.4488L6.48665 10.767ZM18.3332 5.83398C17.7587 5.58778 17.7588 5.58766 17.7588 5.58754C17.7588 5.58751 17.7589 5.5874 17.7589 5.58734C17.759 5.58721 17.759 5.58712 17.759 5.58705C17.7591 5.58692 17.7591 5.5869 17.7591 5.58698C17.759 5.58715 17.7587 5.58775 17.7583 5.58878C17.7574 5.59084 17.7557 5.59461 17.7533 5.60002C17.7485 5.61084 17.7406 5.62823 17.7297 5.65169C17.7078 5.69862 17.6736 5.76978 17.627 5.86121C17.5337 6.04421 17.3907 6.30757 17.196 6.61999C16.8056 7.24662 16.2134 8.06062 15.4054 8.81898L16.2609 9.73039C17.1685 8.87855 17.8263 7.97221 18.2569 7.28104C18.4728 6.93455 18.6332 6.63965 18.7406 6.42911C18.7943 6.32377 18.8349 6.23934 18.8626 6.17988C18.8764 6.15014 18.8871 6.12663 18.8946 6.10985C18.8983 6.10146 18.9013 6.09475 18.9035 6.08979C18.9046 6.0873 18.9054 6.08526 18.9061 6.08365C18.9065 6.08285 18.9068 6.08216 18.907 6.08158C18.9072 6.08129 18.9073 6.08103 18.9074 6.0808C18.9074 6.08068 18.9075 6.08053 18.9075 6.08047C18.9076 6.08032 18.9076 6.08018 18.3332 5.83398ZM15.4054 8.81898C14.6896 9.49086 13.8114 10.1126 12.7603 10.5263L13.2181 11.6895C14.4461 11.2061 15.4553 10.4865 16.2609 9.73039L15.4054 8.81898ZM15.3912 9.71662L16.6412 10.9666L17.5251 10.0827L16.2751 8.83274L15.3912 9.71662ZM9.37484 11.6673V13.7507H10.6248V11.6673H9.37484ZM12.4653 11.4488L13.6426 13.2582L14.6904 12.5765L13.513 10.767L12.4653 11.4488ZM3.72456 8.83274L2.47456 10.0827L3.35845 10.9666L4.60845 9.71662L3.72456 8.83274Z"
            fill="currentColor" />
    </symbol>
    <symbol id="eye" viewBox="0 0 20 20" fill="none">
        <path
            d="M2.72916 12.747C2.02088 11.8269 1.66675 11.3668 1.66675 10.0007C1.66675 8.6345 2.02088 8.17442 2.72916 7.25426C4.14339 5.41695 6.51518 3.33398 10.0001 3.33398C13.485 3.33398 15.8568 5.41695 17.271 7.25426C17.9793 8.17442 18.3334 8.6345 18.3334 10.0007C18.3334 11.3668 17.9793 11.8269 17.271 12.747C15.8568 14.5844 13.485 16.6673 10.0001 16.6673C6.51518 16.6673 4.14339 14.5844 2.72916 12.747Z"
            stroke="currentColor" stroke-width="1.25" />
        <path
            d="M12.5 10C12.5 11.3807 11.3807 12.5 10 12.5C8.61929 12.5 7.5 11.3807 7.5 10C7.5 8.61929 8.61929 7.5 10 7.5C11.3807 7.5 12.5 8.61929 12.5 10Z"
            stroke="currentColor" stroke-width="1.25" />
    </symbol>

    <symbol id="spinner" viewBox="0 0 40 40" fill="none" xmlns="http://www.w3.org/2000/svg">
        <circle cx="20" cy="20" r="18" stroke="currentColor" stroke-opacity="0.2" stroke-width="4"
            stroke-linecap="round" stroke-linejoin="round" />
        <path
            d="M7.27208 7.27208C9.78942 4.75473 12.9967 3.0404 16.4884 2.34586C19.98 1.65133 23.5992 2.00779 26.8883 3.37017C30.1774 4.73255 32.9886 7.03965 34.9665 9.99974C36.9443 12.9598 38 16.4399 38 20"
            stroke="currentColor" stroke-width="4" stroke-linecap="round" stroke-linejoin="round" />
    </symbol>

    <symbol id="refresh" viewBox="0 0 16 16" fill="none">
        <path
            d="M2.45313 7.55556H1.82813V7.55556L2.45313 7.55556ZM2.45313 8.66667L2.01292 9.11034C2.2566 9.35211 2.64965 9.35211 2.89333 9.11034L2.45313 8.66667ZM4.0132 7.99923C4.25824 7.75611 4.25979 7.36039 4.01667 7.11535C3.77356 6.87032 3.37783 6.86876 3.1328 7.11188L4.0132 7.99923ZM1.77345 7.11188C1.52842 6.86876 1.13269 6.87032 0.889578 7.11535C0.646461 7.36039 0.648015 7.75611 0.89305 7.99923L1.77345 7.11188ZM12.3038 4.99399C12.4846 5.28805 12.8695 5.37987 13.1636 5.1991C13.4576 5.01832 13.5494 4.6334 13.3687 4.33934L12.3038 4.99399ZM8.0525 1.375C4.61951 1.375 1.82813 4.13751 1.82813 7.55556H3.07813C3.07813 4.8371 5.30059 2.625 8.0525 2.625V1.375ZM1.82813 7.55556L1.82813 8.66667L3.07813 8.66667L3.07813 7.55556L1.82813 7.55556ZM2.89333 9.11034L4.0132 7.99923L3.1328 7.11188L2.01292 8.22299L2.89333 9.11034ZM2.89333 8.22299L1.77345 7.11188L0.89305 7.99923L2.01292 9.11034L2.89333 8.22299ZM13.3687 4.33934C12.2758 2.56167 10.303 1.375 8.0525 1.375V2.625C9.85394 2.625 11.4305 3.57348 12.3038 4.99399L13.3687 4.33934Z"
            fill="currentColor" />
        <path
            d="M13.5427 7.33398L13.982 6.88947C13.7386 6.64882 13.3468 6.64882 13.1033 6.88947L13.5427 7.33398ZM11.9792 8.00058C11.7337 8.24323 11.7314 8.63895 11.974 8.88445C12.2167 9.12995 12.6124 9.13226 12.8579 8.88961L11.9792 8.00058ZM14.2275 8.88961C14.473 9.13226 14.8687 9.12995 15.1113 8.88445C15.354 8.63895 15.3517 8.24323 15.1062 8.00058L14.2275 8.88961ZM3.65175 11.0058C3.47047 10.712 3.08539 10.6208 2.79164 10.8021C2.4979 10.9834 2.40672 11.3685 2.588 11.6622L3.65175 11.0058ZM7.9219 14.6257C11.3645 14.6257 14.1677 11.8654 14.1677 8.4451H12.9177C12.9177 11.1613 10.6879 13.3757 7.9219 13.3757V14.6257ZM14.1677 8.4451V7.33398H12.9177V8.4451H14.1677ZM13.1033 6.88947L11.9792 8.00058L12.8579 8.88961L13.982 7.7785L13.1033 6.88947ZM13.1033 7.7785L14.2275 8.88961L15.1062 8.00058L13.982 6.88947L13.1033 7.7785ZM2.588 11.6622C3.68513 13.44 5.66475 14.6257 7.9219 14.6257V13.3757C6.11159 13.3757 4.52829 12.4261 3.65175 11.0058L2.588 11.6622Z"
            fill="currentColor" />
    </symbol>

    <symbol id="hamburger" viewBox="0 0 32 32" fill="none">
        <path d="M26.6665 8L5.33317 8" stroke="currentColor" stroke-width="1.75" stroke-linecap="round" />
        <path d="M26.6665 16L5.33317 16" stroke="currentColor" stroke-width="1.75" stroke-linecap="round" />
        <path d="M26.6665 24L5.33317 24" stroke="currentColor" stroke-width="1.75" stroke-linecap="round" />
    </symbol>

    <symbol id="arrow-left" viewBox="0 0 24 24" fill="none">
        <path d="M20 12H4M4 12L10 6M4 12L10 18" stroke="currentColor" stroke-width="1.75" stroke-linecap="round"
            stroke-linejoin="round" />
    </symbol>

    <symbol id="arrow-right" viewBox="0 0 24 24" fill="none">
        <path d="M4 12H20M20 12L14 6M20 12L14 18" stroke="currentColor" stroke-width="1.75" stroke-linecap="round"
            stroke-linejoin="round" />
    </symbol>

    <symbol id="key" viewBox="0 0 20 20" fill="none">
        <g clip-path="url(#clip0_1846_2279)">
            <path
                d="M13.0672 12.1558C15.9756 12.1558 18.3333 9.80775 18.3333 6.91128C18.3333 4.0148 15.9756 1.66675 13.0672 1.66675C10.1589 1.66675 7.80121 4.0148 7.80121 6.91128C7.80121 8.2529 8.41354 9.22863 8.41354 9.22863L2.0453 15.5708C1.75954 15.8554 1.35949 16.5954 2.0453 17.2784L2.78009 18.0102C3.06584 18.2541 3.78429 18.5956 4.37212 18.0102L5.22939 17.1564C6.08665 18.0102 7.06638 17.5223 7.43378 17.0344C8.04611 16.1807 7.31131 15.3269 7.31131 15.3269L7.55624 15.083C8.73192 16.2539 9.76063 15.5708 10.128 15.083C10.7404 14.2292 10.128 13.3755 10.128 13.3755C9.8831 12.8876 9.39327 12.8876 10.0056 12.2778L10.7404 11.546C11.3282 12.0338 12.5366 12.1558 13.0672 12.1558Z"
                stroke="currentColor" stroke-width="1.5" stroke-linejoin="round" />
            <path
                d="M14.9042 6.91127C14.9042 7.92167 14.0818 8.74076 13.0672 8.74076C12.0527 8.74076 11.2302 7.92167 11.2302 6.91127C11.2302 5.90088 12.0527 5.08179 13.0672 5.08179C14.0818 5.08179 14.9042 5.90088 14.9042 6.91127Z"
                stroke="currentColor" stroke-width="1.5" />
        </g>
        <defs>
            <clipPath id="clip0_1846_2279">
                <rect width="20" height="20" fill="currentColor" />
            </clipPath>
        </defs>
    </symbol>

    <symbol id="receive" viewBox="0 0 16 16" fill="none">
        <path
            d="M14.5302 2.53025C14.8231 2.23736 14.8231 1.76248 14.5302 1.46959C14.2374 1.1767 13.7625 1.1767 13.4696 1.46959L14.5302 2.53025ZM7.99992 7.99992H7.24992C7.24992 8.41413 7.58571 8.74992 7.99992 8.74992V7.99992ZM11.5624 8.74992C11.9766 8.74992 12.3124 8.41413 12.3124 7.99992C12.3124 7.58571 11.9766 7.24992 11.5624 7.24992V8.74992ZM8.74992 4.43742C8.74992 4.02321 8.41413 3.68742 7.99992 3.68742C7.58571 3.68742 7.24992 4.02321 7.24992 4.43742H8.74992ZM7.99992 2.08325C8.41413 2.08325 8.74992 1.74747 8.74992 1.33325C8.74992 0.919038 8.41413 0.583252 7.99992 0.583252V2.08325ZM15.4166 7.99992C15.4166 7.58571 15.0808 7.24992 14.6666 7.24992C14.2524 7.24992 13.9166 7.58571 13.9166 7.99992H15.4166ZM13.4696 1.46959L7.46959 7.46959L8.53025 8.53025L14.5302 2.53025L13.4696 1.46959ZM7.99992 8.74992H11.5624V7.24992H7.99992V8.74992ZM8.74992 7.99992V4.43742H7.24992V7.99992H8.74992ZM2.08325 7.99992C2.08325 4.73223 4.73223 2.08325 7.99992 2.08325V0.583252C3.90381 0.583252 0.583252 3.90381 0.583252 7.99992H2.08325ZM13.9166 7.99992C13.9166 11.2676 11.2676 13.9166 7.99992 13.9166V15.4166C12.096 15.4166 15.4166 12.096 15.4166 7.99992H13.9166ZM7.99992 13.9166C4.73223 13.9166 2.08325 11.2676 2.08325 7.99992H0.583252C0.583252 12.096 3.90381 15.4166 7.99992 15.4166V13.9166Z"
            fill="currentColor" />
    </symbol>

    <symbol id="share" viewBox="0 0 17 16" fill="none">
        <path
            d="M6.56998 6.05224C6.23065 6.28978 6.14812 6.75743 6.38566 7.09676C6.62319 7.4361 7.09084 7.51863 7.43018 7.28109L6.56998 6.05224ZM10.7635 4.94776C11.1028 4.71022 11.1854 4.24257 10.9478 3.90324C10.7103 3.5639 10.2427 3.48137 9.90332 3.71891L10.7635 4.94776ZM7.43018 8.71891C7.09084 8.48137 6.62319 8.5639 6.38566 8.90324C6.14812 9.24257 6.23065 9.71022 6.56998 9.94776L7.43018 8.71891ZM9.90332 12.2811C10.2427 12.5186 10.7103 12.4361 10.9478 12.0968C11.1854 11.7574 11.1028 11.2898 10.7635 11.0522L9.90332 12.2811ZM6.25008 8C6.25008 8.50626 5.83968 8.91667 5.33341 8.91667V10.4167C6.6681 10.4167 7.75008 9.33469 7.75008 8H6.25008ZM5.33341 8.91667C4.82715 8.91667 4.41675 8.50626 4.41675 8H2.91675C2.91675 9.33469 3.99873 10.4167 5.33341 10.4167V8.91667ZM4.41675 8C4.41675 7.49374 4.82715 7.08333 5.33341 7.08333V5.58333C3.99873 5.58333 2.91675 6.66531 2.91675 8H4.41675ZM5.33341 7.08333C5.83968 7.08333 6.25008 7.49374 6.25008 8H7.75008C7.75008 6.66531 6.6681 5.58333 5.33341 5.58333V7.08333ZM7.43018 7.28109L10.7635 4.94776L9.90332 3.71891L6.56998 6.05224L7.43018 7.28109ZM6.56998 9.94776L9.90332 12.2811L10.7635 11.0522L7.43018 8.71891L6.56998 9.94776ZM12.9167 12.3333C12.9167 12.8396 12.5063 13.25 12.0001 13.25V14.75C13.3348 14.75 14.4167 13.668 14.4167 12.3333H12.9167ZM12.0001 13.25C11.4938 13.25 11.0834 12.8396 11.0834 12.3333H9.58341C9.58341 13.668 10.6654 14.75 12.0001 14.75V13.25ZM11.0834 12.3333C11.0834 11.8271 11.4938 11.4167 12.0001 11.4167V9.91667C10.6654 9.91667 9.58341 10.9986 9.58341 12.3333H11.0834ZM12.0001 11.4167C12.5063 11.4167 12.9167 11.8271 12.9167 12.3333H14.4167C14.4167 10.9986 13.3348 9.91667 12.0001 9.91667V11.4167ZM12.9167 3.66667C12.9167 4.17293 12.5063 4.58333 12.0001 4.58333V6.08333C13.3348 6.08333 14.4167 5.00136 14.4167 3.66667H12.9167ZM12.0001 4.58333C11.4938 4.58333 11.0834 4.17293 11.0834 3.66667H9.58341C9.58341 5.00135 10.6654 6.08333 12.0001 6.08333V4.58333ZM11.0834 3.66667C11.0834 3.16041 11.4938 2.75 12.0001 2.75V1.25C10.6654 1.25 9.58341 2.33198 9.58341 3.66667H11.0834ZM12.0001 2.75C12.5063 2.75 12.9167 3.16041 12.9167 3.66667H14.4167C14.4167 2.33198 13.3348 1.25 12.0001 1.25V2.75Z"
            fill="currentColor" />
    </symbol>
    <symbol id="invalid" viewBox="0 0 14 14" fill="none">
        <rect x="0.65" y="0.65" width="12.7" height="12.7" rx="6.35" stroke="currentColor" stroke-opacity="1"
            stroke-width="1.3" />
        <path
            d="M9.1213 4.8787L6.99998 7.00002M6.99998 7.00002L4.87866 9.12134M6.99998 7.00002L4.87864 4.87868M6.99998 7.00002L9.12128 9.12132"
            stroke="currentColor" stroke-opacity="0.5" stroke-linecap="round" />
    </symbol>
    <symbol id="valid" viewBox="0 0 14 14" fill="none">
        <rect x="0.65" y="0.65" width="12.7" height="12.7" rx="6.35" stroke="currentColor" stroke-opacity="1"
            stroke-width="1.3" />
        <path d="M4 7.7L5.57143 9.5L9.5 5" stroke="currentColor" stroke-width="1.5" stroke-linecap="round"
            stroke-linejoin="round" />
    </symbol>
    <symbol id="alert" viewBox="0 0 14 14" fill="none">
        <path
            d="M3.09834 6.27754C4.80071 3.25918 5.6519 1.75 6.99984 1.75C8.34777 1.75 9.19896 3.25918 10.9013 6.27753L11.1135 6.65365C12.5281 9.16189 13.2355 10.416 12.5962 11.333C11.9569 12.25 10.3753 12.25 7.21197 12.25H6.7877C3.62441 12.25 2.04277 12.25 1.40349 11.333C0.764204 10.416 1.47154 9.16189 2.8862 6.65366L3.09834 6.27754Z"
            stroke="currentColor" stroke-width="1.5" />
        <path d="M7 4.66602V7.58268" stroke="currentColor" stroke-width="1.5" stroke-linecap="round" />
        <circle cx="6.99984" cy="9.33333" r="0.583333" fill="currentColor" />
    </symbol>
    <symbol id="user" viewBox="0 0 24 24">
        <path d="M12,12A6,6,0,1,0,6,6,6.006,6.006,0,0,0,12,12ZM12,2A4,4,0,1,1,8,6,4,4,0,0,1,12,2Z"
            fill="currentColor" />
        <path d="M12,14a9.01,9.01,0,0,0-9,9,1,1,0,0,0,2,0,7,7,0,0,1,14,0,1,1,0,0,0,2,0A9.01,9.01,0,0,0,12,14Z"
            fill="currentColor" />
    </symbol>
    <svg id="add-user" viewBox="0 0 24 24" fill="none">
        <circle cx="12" cy="6" r="4" stroke="currentColor" stroke-width="2" />
        <circle cx="17" cy="18" r="4" stroke="currentColor" stroke-width="2" />
        <path d="M17 16.667V19.3337" stroke="currentColor" stroke-width="2" stroke-linecap="round"
            stroke-linejoin="round" />
        <path d="M15.6665 18L18.3332 18" stroke="currentColor" stroke-width="2" stroke-linecap="round"
            stroke-linejoin="round" />
        <path
            d="M14 20.8344C13.3663 20.9421 12.695 21 12 21C8.13401 21 5 19.2091 5 17C5 14.7909 8.13401 13 12 13C13.7135 13 15.2832 13.3518 16.5 13.9359"
            stroke="currentColor" stroke-width="2" />
    </svg>
    <svg id="users" viewBox="0 0 24 24" fill="none">
        <circle cx="12" cy="6" r="4" stroke="currentColor" stroke-width="2" />
        <path d="M18 9C19.6569 9 21 7.88071 21 6.5C21 5.11929 19.6569 4 18 4" stroke="currentColor" stroke-width="2"
            stroke-linecap="round" />
        <path d="M6 9C4.34315 9 3 7.88071 3 6.5C3 5.11929 4.34315 4 6 4" stroke="currentColor" stroke-width="2"
            stroke-linecap="round" />
        <ellipse cx="12" cy="17" rx="6" ry="4" stroke="currentColor" stroke-width="2" />
        <path d="M20 19C21.7542 18.6153 23 17.6411 23 16.5C23 15.3589 21.7542 14.3847 20 14" stroke="currentColor"
            stroke-width="2" stroke-linecap="round" />
        <path d="M4 19C2.24575 18.6153 1 17.6411 1 16.5C1 15.3589 2.24575 14.3847 4 14" stroke="currentColor"
            stroke-width="2" stroke-linecap="round" />
    </svg>

    <symbol id="details" viewBox="0 0 20 20">
        <circle cx="9.75" cy="3.75" r="1.125" fill="currentColor" stroke="currentColor" stroke-width="1.25" />
        <circle cx="9.75" cy="10.25" r="1.125" fill="currentColor" stroke="currentColor" stroke-width="1.25" />
        <circle cx="9.75" cy="16.75" r="1.125" fill="currentColor" stroke="currentColor" stroke-width="1.25" />
    </symbol>

    <symbol id="success" viewBox="0 0 24 24" fill="none">
        <circle cx="12" cy="12" r="10" stroke="currentColor" stroke-width="2" />
        <path d="M8.5 12.5L10.5 14.5L15.5 9.5" stroke="currentColor" stroke-width="2" stroke-linecap="round"
            stroke-linejoin="round" />
    </symbol>

    <symbol id="error" viewBox="0 0 24 24">
        <circle cx="12" cy="12" r="10" stroke="currentColor" stroke-width="2" />
        <path d="M14.5 9.50002L9.5 14.5M9.49998 9.5L14.5 14.5" stroke="currentColor" stroke-width="2"
            stroke-linecap="round" />
    </symbol>

    <symbol id="trash" viewBox="0 0 24 24">
        <path
            d="m15.707,11.707l-2.293,2.293,2.293,2.293c.391.391.391,1.023,0,1.414-.195.195-.451.293-.707.293s-.512-.098-.707-.293l-2.293-2.293-2.293,2.293c-.195.195-.451.293-.707.293s-.512-.098-.707-.293c-.391-.391-.391-1.023,0-1.414l2.293-2.293-2.293-2.293c-.391-.391-.391-1.023,0-1.414s1.023-.391,1.414,0l2.293,2.293,2.293-2.293c.391-.391,1.023-.391,1.414,0s.391,1.023,0,1.414Zm7.293-6.707c0,.553-.448,1-1,1h-.885l-1.276,13.472c-.245,2.581-2.385,4.528-4.978,4.528h-5.727c-2.589,0-4.729-1.943-4.977-4.521l-1.296-13.479h-.86c-.552,0-1-.447-1-1s.448-1,1-1h4.101c.465-2.279,2.485-4,4.899-4h2c2.414,0,4.435,1.721,4.899,4h4.101c.552,0,1,.447,1,1Zm-14.828-1h7.656c-.413-1.164-1.524-2-2.828-2h-2c-1.304,0-2.415.836-2.828,2Zm10.934,2H4.87l1.278,13.287c.148,1.547,1.432,2.713,2.986,2.713h5.727c1.556,0,2.84-1.168,2.987-2.718l1.258-13.282Z"
            fill="currentColor" />
    </symbol>

    <symbol id="conversation" viewBox="0 0 24 24" fill="none">
        <path
            d="M10 22C14.4183 22 18 18.4183 18 14C18 9.58172 14.4183 6 10 6C5.58172 6 2 9.58172 2 14C2 15.2355 2.28008 16.4056 2.7802 17.4502C2.95209 17.8093 3.01245 18.2161 2.90955 18.6006L2.58151 19.8267C2.32295 20.793 3.20701 21.677 4.17335 21.4185L5.39939 21.0904C5.78393 20.9876 6.19071 21.0479 6.54976 21.2198C7.5944 21.7199 8.76449 22 10 22Z"
            stroke="currentColor" stroke-width="2" />
        <path
            d="M18 14.5018C18.0665 14.4741 18.1324 14.4453 18.1977 14.4155C18.5598 14.2501 18.9661 14.1882 19.3506 14.2911L19.8267 14.4185C20.793 14.677 21.677 13.793 21.4185 12.8267L21.2911 12.3506C21.1882 11.9661 21.2501 11.5598 21.4155 11.1977C21.7908 10.376 22 9.46242 22 8.5C22 4.91015 19.0899 2 15.5 2C12.7977 2 10.4806 3.64899 9.5 5.9956"
            stroke="currentColor" stroke-width="2" />
        <path d="M6.51828 14H6.52728M10.009 14H10.018M13.5 14H13.509" stroke="currentColor" stroke-width="2"
            stroke-linecap="round" stroke-linejoin="round" />
    </symbol>

    <symbol id="edit" viewBox="0 0 24 24" fill="none">
        <path
            d="M16.652 3.45506L17.3009 2.80624C18.3759 1.73125 20.1188 1.73125 21.1938 2.80624C22.2687 3.88124 22.2687 5.62415 21.1938 6.69914L20.5449 7.34795M16.652 3.45506C16.652 3.45506 16.7331 4.83379 17.9497 6.05032C19.1662 7.26685 20.5449 7.34795 20.5449 7.34795M16.652 3.45506L10.6872 9.41993C10.2832 9.82394 10.0812 10.0259 9.90743 10.2487C9.70249 10.5114 9.52679 10.7957 9.38344 11.0965C9.26191 11.3515 9.17157 11.6225 8.99089 12.1646L8.41242 13.9M20.5449 7.34795L14.5801 13.3128C14.1761 13.7168 13.9741 13.9188 13.7513 14.0926C13.4886 14.2975 13.2043 14.4732 12.9035 14.6166C12.6485 14.7381 12.3775 14.8284 11.8354 15.0091L10.1 15.5876M10.1 15.5876L8.97709 15.9619C8.71035 16.0508 8.41626 15.9814 8.21744 15.7826C8.01862 15.5837 7.9492 15.2897 8.03811 15.0229L8.41242 13.9M10.1 15.5876L8.41242 13.9"
            stroke="currentColor" stroke-width="2" />
        <path d="M22 12C22 17.5228 17.5228 22 12 22C6.47715 22 2 17.5228 2 12C2 6.47715 6.47715 2 12 2"
            stroke="currentColor" stroke-width="2" stroke-linecap="round" />
    </symbol>
    <symbol id="refresh" viewBox="0 0 24 24" fill="none">
        <path
            d="M3.67981 11.3333H2.67981H3.67981ZM3.67981 13L2.97549 13.7099C3.36537 14.0967 3.99426 14.0967 4.38414 13.7099L3.67981 13ZM6.06395 12.0432C6.456 11.6542 6.45849 11.0211 6.0695 10.629C5.68051 10.237 5.04735 10.2345 4.6553 10.6235L6.06395 12.0432ZM2.70432 10.6235C2.31227 10.2345 1.67911 10.237 1.29012 10.629C0.901134 11.0211 0.903621 11.6542 1.29568 12.0432L2.70432 10.6235ZM18.4026 7.52372C18.6918 7.99421 19.3077 8.14113 19.7782 7.85189C20.2487 7.56265 20.3956 6.94677 20.1064 6.47628L18.4026 7.52372ZM12.0789 2C6.89533 2 2.67981 6.17128 2.67981 11.3333H4.67981C4.67981 7.29064 7.98506 4 12.0789 4V2ZM2.67981 11.3333L2.67981 13H4.67981L4.67981 11.3333H2.67981ZM4.38414 13.7099L6.06395 12.0432L4.6553 10.6235L2.97549 12.2901L4.38414 13.7099ZM4.38414 12.2901L2.70432 10.6235L1.29568 12.0432L2.97549 13.7099L4.38414 12.2901ZM20.1064 6.47628C18.4561 3.79191 15.4771 2 12.0789 2V4C14.7586 4 17.1036 5.41081 18.4026 7.52372L20.1064 6.47628Z"
            fill="currentColor" />
        <path
            d="M20.3139 11L21.0169 10.2888C20.6273 9.90374 20.0005 9.90374 19.6109 10.2888L20.3139 11ZM17.9247 11.9554C17.5319 12.3437 17.5282 12.9768 17.9164 13.3696C18.3047 13.7624 18.9378 13.7661 19.3306 13.3779L17.9247 11.9554ZM21.2972 13.3779C21.69 13.7661 22.3231 13.7624 22.7114 13.3696C23.0996 12.9768 23.0959 12.3437 22.7031 11.9554L21.2972 13.3779ZM5.53068 16.4748C5.24064 16.0048 4.62451 15.859 4.15452 16.149C3.68452 16.439 3.53865 17.0552 3.82869 17.5252L5.53068 16.4748ZM11.8827 22C17.0804 22 21.3139 17.8323 21.3139 12.6667H19.3139C19.3139 16.7058 15.9979 20 11.8827 20V22ZM21.3139 12.6667V11H19.3139V12.6667H21.3139ZM19.6109 10.2888L17.9247 11.9554L19.3306 13.3779L21.0169 11.7112L19.6109 10.2888ZM19.6109 11.7112L21.2972 13.3779L22.7031 11.9554L21.0169 10.2888L19.6109 11.7112ZM3.82869 17.5252C5.48542 20.2098 8.47467 22 11.8827 22V20C9.1896 20 6.83447 18.5875 5.53068 16.4748L3.82869 17.5252Z"
            fill="currentColor" />
    </symbol>
    <svg width="24" height="24" viewBox="0 0 24 24" fill="none" xmlns="http://www.w3.org/2000/svg">
        <path
            d="M6 11C6 8.17157 6 6.75736 6.87868 5.87868C7.75736 5 9.17157 5 12 5H15C17.8284 5 19.2426 5 20.1213 5.87868C21 6.75736 21 8.17157 21 11V16C21 18.8284 21 20.2426 20.1213 21.1213C19.2426 22 17.8284 22 15 22H12C9.17157 22 7.75736 22 6.87868 21.1213C6 20.2426 6 18.8284 6 16V11Z"
            stroke="currentColor" stroke-width="2" />
        <path
            d="M6 19C4.34315 19 3 17.6569 3 16V10C3 6.22876 3 4.34315 4.17157 3.17157C5.34315 2 7.22876 2 11 2H15C16.6569 2 18 3.34315 18 5"
            stroke="currentColor" stroke-width="2" />
    </svg>
    <svg id="copy" viewBox="0 0 24 24" fill="none">
        <path
            d="M6 11C6 8.17157 6 6.75736 6.87868 5.87868C7.75736 5 9.17157 5 12 5H15C17.8284 5 19.2426 5 20.1213 5.87868C21 6.75736 21 8.17157 21 11V16C21 18.8284 21 20.2426 20.1213 21.1213C19.2426 22 17.8284 22 15 22H12C9.17157 22 7.75736 22 6.87868 21.1213C6 20.2426 6 18.8284 6 16V11Z"
            stroke="currentColor" stroke-width="2" />
        <path
            d="M6 19C4.34315 19 3 17.6569 3 16V10C3 6.22876 3 4.34315 4.17157 3.17157C5.34315 2 7.22876 2 11 2H15C16.6569 2 18 3.34315 18 5"
            stroke="currentColor" stroke-width="2" />
    </svg>
    <svg id="file" viewBox="0 0 24 24" fill="none">
        <path
            d="M15.3929 4.05365L14.724 4.79694V4.79694L15.3929 4.05365ZM19.3517 7.61654L18.6828 8.35984L19.3517 7.61654ZM21.654 10.1541L20.7405 10.5609V10.5609L21.654 10.1541ZM3.17157 20.8284L3.87868 20.1213L3.87868 20.1213L3.17157 20.8284ZM20.8284 20.8284L20.1213 20.1213L20.1213 20.1213L20.8284 20.8284ZM14 21H10V23H14V21ZM3 14V10H1V14H3ZM21 13.5629V14H23V13.5629H21ZM14.724 4.79694L18.6828 8.35984L20.0207 6.87325L16.0619 3.31035L14.724 4.79694ZM23 13.5629C23 11.8966 23.0202 10.7637 22.5675 9.74726L20.7405 10.5609C20.9798 11.0983 21 11.72 21 13.5629H23ZM18.6828 8.35984C20.0526 9.5927 20.5012 10.0236 20.7405 10.5609L22.5675 9.74726C22.1148 8.73081 21.2592 7.98793 20.0207 6.87325L18.6828 8.35984ZM10.0298 3C11.6305 3 12.1722 3.01544 12.651 3.19914L13.3675 1.3319C12.4623 0.984562 11.4791 1 10.0298 1V3ZM16.0619 3.31035C14.9899 2.34552 14.2725 1.67918 13.3675 1.3319L12.651 3.19914C13.1298 3.38289 13.5403 3.73163 14.724 4.79694L16.0619 3.31035ZM10 21C8.08611 21 6.75129 20.9979 5.74416 20.8625C4.76579 20.7309 4.2477 20.4903 3.87868 20.1213L2.46447 21.5355C3.26702 22.3381 4.27752 22.6833 5.47766 22.8446C6.64904 23.0021 8.14265 23 10 23V21ZM1 14C1 15.8573 0.997876 17.351 1.15536 18.5223C1.31672 19.7225 1.66191 20.733 2.46447 21.5355L3.87868 20.1213C3.50966 19.7523 3.26907 19.2342 3.13753 18.2558C3.00212 17.2487 3 15.9139 3 14H1ZM14 23C15.8573 23 17.351 23.0021 18.5223 22.8446C19.7225 22.6833 20.733 22.3381 21.5355 21.5355L20.1213 20.1213C19.7523 20.4903 19.2342 20.7309 18.2558 20.8625C17.2487 20.9979 15.9139 21 14 21V23ZM21 14C21 15.9139 20.9979 17.2487 20.8625 18.2558C20.7309 19.2342 20.4903 19.7523 20.1213 20.1213L21.5355 21.5355C22.3381 20.733 22.6833 19.7225 22.8446 18.5223C23.0021 17.351 23 15.8573 23 14H21ZM3 10C3 8.08611 3.00212 6.75129 3.13753 5.74416C3.26907 4.76579 3.50966 4.2477 3.87868 3.87868L2.46447 2.46447C1.66191 3.26702 1.31672 4.27752 1.15536 5.47766C0.997876 6.64904 1 8.14265 1 10H3ZM10.0298 1C8.16242 1 6.66169 0.997894 5.48571 1.15528C4.28171 1.31642 3.2678 1.66113 2.46447 2.46447L3.87868 3.87868C4.24692 3.51044 4.76657 3.26936 5.75101 3.13761C6.76347 3.00211 8.10607 3 10.0298 3V1Z"
            fill="currentColor" />
        <path d="M13 2.5V5C13 7.35702 13 8.53553 13.7322 9.26777C14.4645 10 15.643 10 18 10H22" stroke="currentColor"
            stroke-width="2" />
    </svg>
    <svg id="file-send" viewBox="0 0 24 24" fill="none">
        <path
            d="M15.3929 4.05365L14.724 4.79694V4.79694L15.3929 4.05365ZM19.3517 7.61654L18.6828 8.35984L19.3517 7.61654ZM21.654 10.1541L20.7405 10.5609V10.5609L21.654 10.1541ZM3.17157 20.8284L3.87868 20.1213L3.87868 20.1213L3.17157 20.8284ZM20.8284 20.8284L20.1213 20.1213L20.1213 20.1213L20.8284 20.8284ZM14 21H10V23H14V21ZM3 14V10H1V14H3ZM21 13.5629V14H23V13.5629H21ZM14.724 4.79694L18.6828 8.35984L20.0207 6.87325L16.0619 3.31035L14.724 4.79694ZM23 13.5629C23 11.8966 23.0202 10.7637 22.5675 9.74726L20.7405 10.5609C20.9798 11.0983 21 11.72 21 13.5629H23ZM18.6828 8.35984C20.0526 9.5927 20.5012 10.0236 20.7405 10.5609L22.5675 9.74726C22.1148 8.73081 21.2592 7.98793 20.0207 6.87325L18.6828 8.35984ZM10.0298 3C11.6305 3 12.1722 3.01544 12.651 3.19914L13.3675 1.3319C12.4623 0.984562 11.4791 1 10.0298 1V3ZM16.0619 3.31035C14.9899 2.34552 14.2725 1.67918 13.3675 1.3319L12.651 3.19914C13.1298 3.38289 13.5403 3.73163 14.724 4.79694L16.0619 3.31035ZM10 21C8.08611 21 6.75129 20.9979 5.74416 20.8625C4.76579 20.7309 4.2477 20.4903 3.87868 20.1213L2.46447 21.5355C3.26702 22.3381 4.27752 22.6833 5.47766 22.8446C6.64904 23.0021 8.14265 23 10 23V21ZM1 14C1 15.8573 0.997876 17.351 1.15536 18.5223C1.31672 19.7225 1.66191 20.733 2.46447 21.5355L3.87868 20.1213C3.50966 19.7523 3.26907 19.2342 3.13753 18.2558C3.00212 17.2487 3 15.9139 3 14H1ZM14 23C15.8573 23 17.351 23.0021 18.5223 22.8446C19.7225 22.6833 20.733 22.3381 21.5355 21.5355L20.1213 20.1213C19.7523 20.4903 19.2342 20.7309 18.2558 20.8625C17.2487 20.9979 15.9139 21 14 21V23ZM21 14C21 15.9139 20.9979 17.2487 20.8625 18.2558C20.7309 19.2342 20.4903 19.7523 20.1213 20.1213L21.5355 21.5355C22.3381 20.733 22.6833 19.7225 22.8446 18.5223C23.0021 17.351 23 15.8573 23 14H21ZM3 10C3 8.08611 3.00212 6.75129 3.13753 5.74416C3.26907 4.76579 3.50966 4.2477 3.87868 3.87868L2.46447 2.46447C1.66191 3.26702 1.31672 4.27752 1.15536 5.47766C0.997876 6.64904 1 8.14265 1 10H3ZM10.0298 1C8.16242 1 6.66169 0.997894 5.48571 1.15528C4.28171 1.31642 3.2678 1.66113 2.46447 2.46447L3.87868 3.87868C4.24692 3.51044 4.76657 3.26936 5.75101 3.13761C6.76347 3.00211 8.10607 3 10.0298 3V1Z"
            fill="currentColor" />
        <path d="M13 2.5V5C13 7.35702 13 8.53553 13.7322 9.26777C14.4645 10 15.643 10 18 10H22" stroke="currentColor"
            stroke-width="2" />
        <path d="M8.5 18.5L8.5 13.5M8.5 13.5L6.5 15.375M8.5 13.5L10.5 15.375" stroke="currentColor" stroke-width="2"
            stroke-linecap="round" stroke-linejoin="round" />
    </svg>
    <svg id="warning" viewBox="0 0 24 24" fill="none">
        <path d="M12 7V13" stroke="currentColor" stroke-width="2" stroke-linecap="round" />
        <circle cx="12" cy="16" r="1" fill="currentColor" />
        <path
            d="M7.84308 3.80211C9.8718 2.6007 10.8862 2 12 2C13.1138 2 14.1282 2.6007 16.1569 3.80211L16.8431 4.20846C18.8718 5.40987 19.8862 6.01057 20.4431 7C21 7.98943 21 9.19084 21 11.5937V12.4063C21 14.8092 21 16.0106 20.4431 17C19.8862 17.9894 18.8718 18.5901 16.8431 19.7915L16.1569 20.1979C14.1282 21.3993 13.1138 22 12 22C10.8862 22 9.8718 21.3993 7.84308 20.1979L7.15692 19.7915C5.1282 18.5901 4.11384 17.9894 3.55692 17C3 16.0106 3 14.8092 3 12.4063V11.5937C3 9.19084 3 7.98943 3.55692 7C4.11384 6.01057 5.1282 5.40987 7.15692 4.20846L7.84308 3.80211Z"
            stroke="currentColor" stroke-width="2" />
    </svg>
</svg>