<svg width="48" height="42" viewBox="0 0 48 42" fill="none" xmlns="http://www.w3.org/2000/svg">
<path fill-rule="evenodd" clip-rule="evenodd" d="M46.2312 21.6273L44.9791 23.1786L43.6506 22.1437L44.9033 20.593L43.1342 19.1904L40.7754 22.2184L34.2861 17.0497C35.0972 15.4984 35.6141 13.6524 35.6141 11.7318C35.6141 5.30705 30.3799 0.136719 24.0366 0.136719C17.6227 0.136719 12.4614 5.30705 12.4614 11.7318C12.4614 17.4921 16.5905 22.2184 22.047 23.1788C22.4279 23.2333 22.7952 23.261 23.1549 23.2805V18.604C23.0059 18.583 22.8576 18.558 22.7111 18.5264C19.5406 17.9355 17.1076 15.1291 17.1076 11.7318C17.1076 7.89112 20.2035 4.79009 24.0368 4.79009C27.7994 4.79009 30.8941 7.89112 30.8941 11.7318C30.8941 14.3911 29.4197 16.7534 27.1337 17.9355C28.8298 18.3048 30.4529 19.0428 31.7786 20.0762H31.7056L43.1342 29.1602L45.125 26.6491L45.5684 26.0591L48.0002 23.0299L46.2312 21.6273Z" fill="#5645EE"/>
<path fill-rule="evenodd" clip-rule="evenodd" d="M25.881 18.8221C25.5418 18.7737 25.1949 18.7493 24.8454 18.7303V23.3902C25.3552 23.451 25.8667 23.5581 26.3972 23.7707C29.0509 24.7293 30.8933 27.2404 30.8933 30.2685C30.8933 34.1092 27.7986 37.2118 24.036 37.2118C20.2026 37.2118 17.1069 34.1092 17.1069 30.2685C17.1069 27.6844 18.5067 25.3944 20.645 24.2131C19.0235 23.8438 17.4745 23.1052 16.2212 22.0719L16.1477 21.9977H16.0747L16.0006 21.9242L4.79361 12.9883L2.87698 15.4994L2.36002 16.0903L0 19.1172L1.77082 20.521L2.94996 18.9697L4.27679 20.004L3.09766 21.5536L4.79375 22.9573L7.22674 19.9299L13.6407 25.0996C12.9032 26.6498 12.461 28.4223 12.461 30.2683C12.461 36.619 17.6222 41.8634 24.0361 41.8634C30.3795 41.8634 35.6137 36.619 35.6137 30.2683C35.6135 24.5088 31.4099 19.7079 25.881 18.8221Z" fill="white"/>
</svg>
