<svg width="40" height="40" viewBox="0 0 40 40" fill="none" xmlns="http://www.w3.org/2000/svg">
    <path
        d="M25.6556 6.75673L25.1538 7.3142V7.3142L25.6556 6.75673ZM32.2535 12.6949L31.7518 13.2524L32.2535 12.6949ZM36.0907 16.9241L35.4055 17.2293V17.2293L36.0907 16.9241ZM5.28661 34.7147L5.81694 34.1844H5.81694L5.28661 34.7147ZM34.7147 34.7147L34.1844 34.1844L34.7147 34.7147ZM23.334 35.9173H16.6673V37.4173H23.334V35.9173ZM4.08398 23.334V16.6673H2.58398V23.334H4.08398ZM35.9173 22.6055V23.334H37.4173V22.6055H35.9173ZM25.1538 7.3142L31.7518 13.2524L32.7552 12.1374L26.1573 6.19926L25.1538 7.3142ZM37.4173 22.6055C37.4173 19.7474 37.4325 18.0935 36.7758 16.619L35.4055 17.2293C35.9022 18.3444 35.9173 19.6149 35.9173 22.6055H37.4173ZM31.7518 13.2524C33.9747 15.253 34.9089 16.1141 35.4055 17.2293L36.7758 16.619C36.1191 15.1445 34.8796 14.0494 32.7552 12.1374L31.7518 13.2524ZM16.717 4.08398C19.3154 4.08398 20.4207 4.09556 21.414 4.47673L21.9514 3.0763C20.6383 2.57241 19.2018 2.58398 16.717 2.58398V4.08398ZM26.1573 6.19926C24.3194 4.54515 23.2644 3.58015 21.9514 3.0763L21.414 4.47673C22.4074 4.85794 23.2322 5.58473 25.1538 7.3142L26.1573 6.19926ZM16.6673 35.9173C13.5034 35.9173 11.2059 35.9157 9.45211 35.6799C7.71985 35.447 6.63067 34.9981 5.81694 34.1844L4.75628 35.245C5.89516 36.3839 7.35364 36.9113 9.25224 37.1666C11.1293 37.4189 13.5458 37.4173 16.6673 37.4173V35.9173ZM2.58398 23.334C2.58398 26.4555 2.58239 28.872 2.83475 30.7491C3.09001 32.6477 3.61739 34.1061 4.75628 35.245L5.81694 34.1844C5.0032 33.3706 4.55427 32.2815 4.32137 30.5492C4.08558 28.7954 4.08398 26.4979 4.08398 23.334H2.58398ZM23.334 37.4173C26.4555 37.4173 28.872 37.4189 30.7491 37.1666C32.6477 36.9113 34.1061 36.3839 35.245 35.245L34.1844 34.1844C33.3706 34.9981 32.2815 35.447 30.5492 35.6799C28.7954 35.9157 26.4979 35.9173 23.334 35.9173V37.4173ZM35.9173 23.334C35.9173 26.4979 35.9157 28.7954 35.6799 30.5492C35.447 32.2815 34.9981 33.3706 34.1844 34.1844L35.245 35.245C36.3839 34.1061 36.9113 32.6477 37.1666 30.7491C37.4189 28.872 37.4173 26.4555 37.4173 23.334H35.9173ZM4.08398 16.6673C4.08398 13.5034 4.08558 11.2059 4.32137 9.45211C4.55427 7.71985 5.0032 6.63067 5.81694 5.81694L4.75628 4.75628C3.61739 5.89516 3.09001 7.35364 2.83475 9.25224C2.58239 11.1293 2.58398 13.5458 2.58398 16.6673H4.08398ZM16.717 2.58398C13.5789 2.58398 11.1501 2.58241 9.2651 2.83469C7.35906 3.08979 5.89575 3.6168 4.75628 4.75628L5.81694 5.81694C6.63009 5.00379 7.72271 4.55449 9.46408 4.32143C11.2265 4.08556 13.5366 4.08398 16.717 4.08398V2.58398Z"
        fill="white" />
    <path
        d="M21.666 4.16602V8.33268C21.666 12.2611 21.666 14.2252 22.8864 15.4456C24.1068 16.666 26.071 16.666 29.9993 16.666H36.666"
        stroke="white" stroke-width="1.5" />
</svg>