<svg width="49" height="49" viewBox="0 0 49 49" fill="none" xmlns="http://www.w3.org/2000/svg">
<rect x="0.5" y="0.5" width="48" height="48" rx="24" fill="#5645EE" fill-opacity="0.3"/>
<rect x="8.5" y="8.5" width="32" height="32" rx="16" fill="#5645EE" fill-opacity="0.6"/>
<path d="M32.8332 21.5827C32.8332 18.5911 30.408 16.166 27.4165 16.166C25.6808 16.166 24.1357 16.9846 23.1444 18.2554C27.3724 18.4188 30.7498 21.898 30.7498 26.166C30.7498 26.2579 30.7483 26.3495 30.7452 26.4407L31.022 26.5148C31.8273 26.7302 32.564 25.9935 32.3486 25.1882L32.2424 24.7915C32.1567 24.4711 32.2082 24.1325 32.3461 23.8308C32.6589 23.146 32.8332 22.3847 32.8332 21.5827Z" fill="white"/>
<path fill-rule="evenodd" clip-rule="evenodd" d="M29.4998 26.166C29.4998 29.8479 26.5151 32.8327 22.8332 32.8327C21.8036 32.8327 20.8285 32.5993 19.958 32.1825C19.6588 32.0393 19.3198 31.989 18.9993 32.0747L17.9776 32.3481C17.1723 32.5636 16.4356 31.8268 16.6511 31.0216L16.9245 29.9999C17.0102 29.6794 16.9599 29.3404 16.8167 29.0412C16.3999 28.1707 16.1665 27.1956 16.1665 26.166C16.1665 22.4841 19.1513 19.4993 22.8332 19.4993C26.5151 19.4993 29.4998 22.4841 29.4998 26.166ZM19.9165 26.9993C20.3767 26.9993 20.7498 26.6263 20.7498 26.166C20.7498 25.7058 20.3767 25.3327 19.9165 25.3327C19.4563 25.3327 19.0832 25.7058 19.0832 26.166C19.0832 26.6263 19.4563 26.9993 19.9165 26.9993ZM22.8332 26.9993C23.2934 26.9993 23.6665 26.6263 23.6665 26.166C23.6665 25.7058 23.2934 25.3327 22.8332 25.3327C22.3729 25.3327 21.9998 25.7058 21.9998 26.166C21.9998 26.6263 22.3729 26.9993 22.8332 26.9993ZM25.7498 26.9993C26.2101 26.9993 26.5832 26.6263 26.5832 26.166C26.5832 25.7058 26.2101 25.3327 25.7498 25.3327C25.2896 25.3327 24.9165 25.7058 24.9165 26.166C24.9165 26.6263 25.2896 26.9993 25.7498 26.9993Z" fill="white"/>
</svg>
