<svg width="49" height="49" viewBox="0 0 49 49" fill="none" xmlns="http://www.w3.org/2000/svg">
<rect x="0.5" y="0.5" width="48" height="48" rx="24" fill="#5645EE" fill-opacity="0.3"/>
<rect x="8.5" y="8.5" width="32" height="32" rx="16" fill="#5645EE" fill-opacity="0.6"/>
<g clip-path="url(#clip0_1931_3007)">
<path d="M27.4352 24.268L25.6199 26.0833L27.4352 27.8986C27.7448 28.2082 27.7448 28.7085 27.4352 29.018C27.2808 29.1724 27.0782 29.25 26.8755 29.25C26.6728 29.25 26.4702 29.1724 26.3158 29.018L24.5005 27.2027L22.6852 29.018C22.5308 29.1724 22.3282 29.25 22.1255 29.25C21.9228 29.25 21.7202 29.1724 21.5658 29.018C21.2563 28.7085 21.2563 28.2082 21.5658 27.8986L23.3811 26.0833L21.5658 24.268C21.2563 23.9585 21.2563 23.4582 21.5658 23.1486C21.8753 22.8391 22.3757 22.8391 22.6852 23.1486L24.5005 24.9639L26.3158 23.1486C26.6253 22.8391 27.1257 22.8391 27.4352 23.1486C27.7448 23.4582 27.7448 23.9585 27.4352 24.268ZM33.2088 18.9583C33.2088 19.3961 32.8542 19.75 32.4172 19.75H31.7166L30.7064 30.4153C30.5124 32.4586 28.8183 34 26.7655 34H22.2316C20.182 34 18.4878 32.4618 18.2915 30.4209L17.2655 19.75H16.5846C16.1476 19.75 15.793 19.3961 15.793 18.9583C15.793 18.5205 16.1476 18.1667 16.5846 18.1667H19.8313C20.1994 16.3625 21.7986 15 23.7096 15H25.293C27.2041 15 28.804 16.3625 29.1713 18.1667H32.418C32.855 18.1667 33.2088 18.5205 33.2088 18.9583ZM21.47 18.1667H27.531C27.2041 17.2452 26.3245 16.5833 25.2922 16.5833H23.7088C22.6765 16.5833 21.797 17.2452 21.47 18.1667ZM30.1261 19.75H18.8559L19.8677 30.2689C19.9848 31.4936 21.0013 32.4167 22.2316 32.4167H26.7655C27.9973 32.4167 29.0138 31.492 29.1302 30.2649L30.1261 19.75Z" fill="white"/>
</g>
<defs>
<clipPath id="clip0_1931_3007">
<rect width="19" height="19" fill="white" transform="translate(15 15)"/>
</clipPath>
</defs>
</svg>
